<svg id="svg1396" xmlns="http://www.w3.org/2000/svg" viewBox="0 0 853.54 538.14"><defs><style>.cls-1,.cls-2,.cls-3{fill:#e86273;}.cls-2{fill-rule:evenodd;}.cls-3{stroke:#e86273;stroke-linecap:round;stroke-miterlimit:15.12;stroke-width:21.54px;}</style></defs><g id="layer1"><g id="g9345"><g id="g9335"><path id="path9299" class="cls-1" d="M43.08,0A43.34,43.34,0,0,0,0,43.08v382a43.34,43.34,0,0,0,43.08,43.07h701a43.35,43.35,0,0,0,43.08-43.07v-382A43.35,43.35,0,0,0,744.12,0Zm0,32.31h701a10.42,10.42,0,0,1,10.77,10.77v382a10.42,10.42,0,0,1-10.77,10.77h-701a10.41,10.41,0,0,1-10.77-10.77v-382A10.41,10.41,0,0,1,43.08,32.31Z"/><path id="path9301" class="cls-2" d="M17.19,97.85,771,97.25V210L16.15,204.94Z"/><path id="path9303" class="cls-1" d="M797.58,70v32.31h12.88a10.41,10.41,0,0,1,10.77,10.77v382a10.41,10.41,0,0,1-10.77,10.76h-701a10.4,10.4,0,0,1-10.77-10.76V484.3H66.34v10.77a43.34,43.34,0,0,0,43.08,43.07h701a43.35,43.35,0,0,0,43.08-43.07v-382A43.35,43.35,0,0,0,810.46,70Z"/><path id="path9305" class="cls-3" d="M71,285.39H448"/><path id="path9307" class="cls-3" d="M71,339.23H342.58"/></g></g></g></svg>