<svg id="svg5952" xmlns="http://www.w3.org/2000/svg" viewBox="0 0 26.76 16.79"><defs><style>.cls-1{fill:#e86273;}.cls-2{font-size:2px;fill:#fff;font-family:MyriadPro-Regular, Myriad Pro;}.cls-3{letter-spacing:0.01em;}.cls-4{letter-spacing:0em;}.cls-5{letter-spacing:0em;}.cls-6{letter-spacing:0em;}.cls-7{letter-spacing:-0.01em;}</style></defs><g id="layer1"><g id="g4396"><g id="g1023"><g id="g2537"><g id="g1449"><g id="g1887"><path id="path2-9" class="cls-1" d="M25.53,0Q13.3,0,1.09,0A1.13,1.13,0,0,0,0,1.08V15.73a1.18,1.18,0,0,0,.84,1,.52.52,0,0,1,.16.06H25.79c.12-.07.25-.09.36-.16a1.15,1.15,0,0,0,.61-1c0-4.83,0-9.66,0-14.49a1.18,1.18,0,0,0-.35-.83A1.23,1.23,0,0,0,25.53,0ZM15.62,1.65h.69l.39,0a.68.68,0,0,1,.24.08.4.4,0,0,1,.19.17.53.53,0,0,1,.06.26.45.45,0,0,1-.09.28.59.59,0,0,1-.22.19h0a.71.71,0,0,1,.37.21.62.62,0,0,1,.14.41.64.64,0,0,1-.07.31.55.55,0,0,1-.18.22.73.73,0,0,1-.29.15,1.49,1.49,0,0,1-.4,0h-.83Zm2.79,0h.42L19.69,4h-.34l-.23-.65h-1L17.88,4h-.32Zm1.63,0h.49l1,1.92V1.65h.3V4h-.39L20.33,1.9V4H20Zm2.43,0h.31V2.88l1.14-1.23h.38L23.25,2.76,24.35,4h-.41L23,3l-.23.25V4h-.31Zm-6.54.27V2.6h.4l.24,0a.44.44,0,0,0,.16-.06.23.23,0,0,0,.1-.12.48.48,0,0,0,0-.18.61.61,0,0,0,0-.15.22.22,0,0,0-.1-.09.35.35,0,0,0-.18-.05h-.63Zm2.68,0L18.2,3.08H19Zm-2.68.94v.87h.41a1.67,1.67,0,0,0,.34,0,.4.4,0,0,0,.21-.08A.29.29,0,0,0,17,3.49a.4.4,0,0,0,0-.2.53.53,0,0,0,0-.23.41.41,0,0,0-.15-.14.74.74,0,0,0-.19,0h-.75ZM5.76,3.28A.72.72,0,0,1,6.48,4V6.78a.72.72,0,0,1-.72.72H3a.72.72,0,0,1-.72-.72V4A.72.72,0,0,1,3,3.28Zm-.68.23H3.65l.72.86Zm0,0-.73.88v.34H5l.22-.19h1V4a.47.47,0,0,0-.48-.48ZM3,3.51A.47.47,0,0,0,2.49,4v.55h1l.22.19h.62V4.39l-.73-.88Zm1.4.87Zm1.87.19h-1L5,4.75v.63H6.24Zm-2.74,0h-1v.81H3.71V4.75ZM5,4.75H3.73V6H5ZM5,5.4V6l.21.18h1V5.4Zm-2.53,0v.81h1L3.71,6V5.4ZM3.73,6l-.22.19h-1v.55A.48.48,0,0,0,3,7.27h.65l.73-.88V6Zm.65,0v.35l.73.88h.65a.48.48,0,0,0,.48-.49V6.23h-1L5,6Zm0,.35Zm0,0-.72.86H5.08Zm18.72,2.7a.33.33,0,0,1,.38.36.27.27,0,0,1-.06.17.31.31,0,0,1-.16.12.41.41,0,0,1,.18.12.34.34,0,0,1,.06.2.36.36,0,0,1-.39.37.46.46,0,0,1-.21,0,.32.32,0,0,1-.15-.13.35.35,0,0,1,0-.2h.1a.25.25,0,0,0,.09.2.27.27,0,0,0,.22.08.25.25,0,0,0,.28-.28.24.24,0,0,0-.08-.2.38.38,0,0,0-.24-.07H23V9.72h.11a.38.38,0,0,0,.16,0,.18.18,0,0,0,.1-.09.2.2,0,0,0,0-.13.24.24,0,0,0-.27-.27.27.27,0,0,0-.2.07.28.28,0,0,0-.08.2h-.1a.32.32,0,0,1,.05-.19.35.35,0,0,1,.14-.13A.38.38,0,0,1,23.09,9.11Zm-6.74,0a.37.37,0,0,1,.27.09.33.33,0,0,1,.1.26.53.53,0,0,1,0,.2,2.26,2.26,0,0,1-.2.27l-.36.41h.67v.1H16v-.09l.43-.51a.59.59,0,0,0,.15-.21.37.37,0,0,0,.05-.16.26.26,0,0,0-.08-.2.24.24,0,0,0-.19-.07.29.29,0,0,0-.21.08.33.33,0,0,0-.08.22H16A.35.35,0,0,1,16,9.3a.29.29,0,0,1,.13-.14A.36.36,0,0,1,16.35,9.11Zm-2,0a.4.4,0,0,1,.27.09.34.34,0,0,1,.1.26.27.27,0,0,1-.05.18.28.28,0,0,1-.16.12.35.35,0,0,1,.18.13.29.29,0,0,1,.07.2.37.37,0,0,1-.11.27.49.49,0,0,1-.3.09.44.44,0,0,1-.29-.09A.34.34,0,0,1,14,9.89a.37.37,0,0,1,.17-.13.29.29,0,0,1-.15-.12A.35.35,0,0,1,14,9.46a.34.34,0,0,1,.1-.26A.4.4,0,0,1,14.37,9.11Zm1,0a.35.35,0,0,1,.3.13.68.68,0,0,1,.11.4v.09a.83.83,0,0,1-.15.54.55.55,0,0,1-.45.18h0v-.1h0a.48.48,0,0,0,.35-.13.57.57,0,0,0,.12-.39.35.35,0,0,1-.14.13.35.35,0,0,1-.18,0,.33.33,0,0,1-.19-.06A.42.42,0,0,1,15,9.79a.54.54,0,0,1,0-.22.47.47,0,0,1,0-.24.37.37,0,0,1,.13-.17A.46.46,0,0,1,15.34,9.11Zm-10.47,0a.41.41,0,0,1,.28.09.36.36,0,0,1,.1.27.27.27,0,0,1-.06.17A.28.28,0,0,1,5,9.76a.41.41,0,0,1,.18.12.34.34,0,0,1,.06.2.36.36,0,0,1-.1.27.41.41,0,0,1-.29.1.46.46,0,0,1-.21,0,.47.47,0,0,1-.15-.13.46.46,0,0,1,0-.2h.11a.24.24,0,0,0,.08.2.29.29,0,0,0,.22.08.28.28,0,0,0,.21-.07.29.29,0,0,0,.08-.21.25.25,0,0,0-.09-.2.38.38,0,0,0-.24-.07h-.1V9.72h.11a.33.33,0,0,0,.15,0,.24.24,0,0,0,.11-.09.28.28,0,0,0,0-.13.26.26,0,0,0-.07-.2.24.24,0,0,0-.2-.07.29.29,0,0,0-.2.07.28.28,0,0,0-.08.2h-.1a.41.41,0,0,1,0-.19.35.35,0,0,1,.14-.13A.41.41,0,0,1,4.87,9.11Zm-1,0h0a.41.41,0,0,1,.28.09.36.36,0,0,1,.09.26.39.39,0,0,1,0,.2,1.51,1.51,0,0,1-.2.27l-.35.41h.67v.1h-.8v-.09L4,9.84a1.05,1.05,0,0,0,.15-.21.53.53,0,0,0,0-.16.3.3,0,0,0-.07-.2.26.26,0,0,0-.2-.07.32.32,0,0,0-.21.08.33.33,0,0,0-.08.22h-.1a.46.46,0,0,1,0-.2.32.32,0,0,1,.14-.14A.35.35,0,0,1,3.87,9.11Zm18.45,0h0v.1h0a.45.45,0,0,0-.36.14.57.57,0,0,0-.14.38A.28.28,0,0,1,22,9.62a.37.37,0,0,1,.18,0,.33.33,0,0,1,.27.12.47.47,0,0,1,.1.32.59.59,0,0,1-.05.23.4.4,0,0,1-.13.16.42.42,0,0,1-.2,0,.38.38,0,0,1-.3-.13.57.57,0,0,1-.11-.36v-.1a.82.82,0,0,1,.16-.55A.56.56,0,0,1,22.32,9.11Zm-11.48,0h0v.1h0a.45.45,0,0,0-.36.14.52.52,0,0,0-.14.38.28.28,0,0,1,.13-.11.37.37,0,0,1,.18,0,.34.34,0,0,1,.27.12A.47.47,0,0,1,11,10a.59.59,0,0,1,0,.23.4.4,0,0,1-.13.16.42.42,0,0,1-.2,0,.38.38,0,0,1-.3-.13.57.57,0,0,1-.11-.36v-.1a.88.88,0,0,1,.15-.55A.59.59,0,0,1,10.84,9.11Zm6.61,0h0v1.32h-.11V9.25L17,9.39V9.28ZM3,9.12H3v1.32H2.89V9.25l-.34.14V9.28Zm16.89,0h.63v.1H20l-.05.45a.41.41,0,0,1,.24-.08.35.35,0,0,1,.28.12.45.45,0,0,1,.1.31.46.46,0,0,1-.1.32.34.34,0,0,1-.28.11.36.36,0,0,1-.39-.36h.1a.29.29,0,0,0,.09.2.26.26,0,0,0,.2.07.23.23,0,0,0,.2-.09.37.37,0,0,0,.07-.25.36.36,0,0,0-.07-.24.29.29,0,0,0-.22-.09l-.13,0a.59.59,0,0,0-.11.08l-.09,0Zm1.39,0h.11V10h.2v.09h-.2v.34h-.1V10.1h-.6V10Zm-10.07,0H12v.07l-.55,1.25h-.11l.55-1.22h-.73Zm-2.41,0H8.9V10h.2v.09H8.9v.34H8.79V10.1h-.6V10Zm.6,0H10v.1H9.47l0,.45a.41.41,0,0,1,.24-.08.34.34,0,0,1,.27.12.45.45,0,0,1,.11.31.51.51,0,0,1-.1.32.36.36,0,0,1-.29.11.4.4,0,0,1-.27-.09.39.39,0,0,1-.11-.27h.1a.34.34,0,0,0,.08.2.27.27,0,0,0,.2.07.25.25,0,0,0,.21-.09A.37.37,0,0,0,9.94,10a.36.36,0,0,0-.08-.24.26.26,0,0,0-.21-.09l-.13,0a.42.42,0,0,0-.12.08l-.08,0ZM6,9.12h.12V10h.19v.09H6.15v.34H6V10.1h-.6V10Zm8.34.08a.25.25,0,0,0-.19.07.27.27,0,0,0,0,.38.29.29,0,0,0,.38,0,.26.26,0,0,0,.08-.19.27.27,0,0,0-.08-.19A.25.25,0,0,0,14.37,9.2Zm1,0a.23.23,0,0,0-.2.1.45.45,0,0,0-.08.26.39.39,0,0,0,.08.25.22.22,0,0,0,.2.1.33.33,0,0,0,.19-.06.34.34,0,0,0,.11-.17V9.62a.48.48,0,0,0-.08-.31A.25.25,0,0,0,15.34,9.2Zm5.93.06-.05.09L20.8,10h.47Zm-12.48,0,0,.09L8.32,10h.47ZM6,9.26l0,.09L5.57,10H6Zm16.09.41a.33.33,0,0,0-.19.06.29.29,0,0,0-.12.15V10a.41.41,0,0,0,.09.28.25.25,0,0,0,.22.11.23.23,0,0,0,.2-.1.41.41,0,0,0,.08-.25.39.39,0,0,0-.08-.25A.25.25,0,0,0,22.13,9.67Zm-11.48,0a.33.33,0,0,0-.19.06.29.29,0,0,0-.12.15V10a.41.41,0,0,0,.09.28.25.25,0,0,0,.22.11.23.23,0,0,0,.2-.1.41.41,0,0,0,.08-.25.39.39,0,0,0-.08-.25.25.25,0,0,0-.2-.09Zm3.72.14a.29.29,0,0,0-.22.08.29.29,0,0,0,0,.4.32.32,0,0,0,.22.07.31.31,0,0,0,.22-.07.24.24,0,0,0,.08-.2.28.28,0,0,0-.08-.2A.33.33,0,0,0,14.37,9.81Z" transform="translate(0 0.01)"/></g></g></g></g></g></g><text class="cls-2" transform="translate(2.55 13.84)"><tspan class="cls-3">I</tspan><tspan class="cls-4" x="0.5" y="0">v</tspan><tspan class="cls-5" x="1.45" y="0">an </tspan><tspan class="cls-3" x="3.95" y="0">I</tspan><tspan class="cls-6" x="4.44" y="0">v</tspan><tspan x="5.4" y="0">an</tspan><tspan class="cls-7" x="7.47" y="0">o</tspan><tspan class="cls-5" x="8.56" y="0">v</tspan></text></svg>