<svg xmlns="http://www.w3.org/2000/svg" viewBox="0 0 19 19"><defs><style>.cls-1{fill:none;stroke:#000;stroke-linecap:square;stroke-linejoin:bevel;}</style></defs><g id="Layer_2" data-name="Layer 2"><g id="Layer_1-2" data-name="Layer 1"><path class="cls-1" d="M9.5.5A9,9,0,0,0,8.12.63c-.07,1.14-.25,2.26-1.2,2.66S5.07,3,4.21,2.24a8.9,8.9,0,0,0-2,2C3,5.07,3.68,6,3.29,6.92S1.75,8.05.6,8.12A9,9,0,0,0,.5,9.5a9.36,9.36,0,0,0,.1,1.41c1.15.07,2.29.19,2.69,1.15S3,14,2.21,14.82a9.2,9.2,0,0,0,2,1.94c.86-.76,1.76-1.41,2.71-1s1.13,1.51,1.2,2.66a9,9,0,0,0,1.38.1,8.71,8.71,0,0,0,1.36-.1c.07-1.15.24-2.27,1.2-2.66s1.85.26,2.71,1a9.16,9.16,0,0,0,2-1.94C16,14,15.29,13,15.69,12.06S17.25,11,18.4,10.91a9.36,9.36,0,0,0,.1-1.41,9,9,0,0,0-.1-1.38c-1.15-.07-2.32-.25-2.71-1.2S16,5.07,16.76,4.21a9.07,9.07,0,0,0-2-2c-.87.76-1.76,1.44-2.71,1S10.93,1.77,10.86.63A8.7,8.7,0,0,0,9.5.5Zm0,6.06a2.94,2.94,0,1,1-3,2.94A2.93,2.93,0,0,1,9.5,6.56Z"/></g></g></svg>