<svg id="Layer_1" data-name="Layer 1" xmlns="http://www.w3.org/2000/svg" viewBox="0 0 80.53 125.01"><defs><style>.cls-1{fill:#000;}</style></defs><g id="Layer_1-2" data-name="Layer_1"><g id="_2744503380960" data-name=" 2744503380960"><path class="cls-1" d="M97.63,187.11h63.92V99.21H97.63ZM94.31,94.22h70.55V85.55H94.31Zm73.05,5h-.82v90.4a2.48,2.48,0,0,1-2.5,2.49H95.13a2.47,2.47,0,0,1-2.49-2.49V99.21h-.83a2.48,2.48,0,0,1-2.49-2.49V83.06a2.49,2.49,0,0,1,2.49-2.5H116.5v-11A2.48,2.48,0,0,1,119,67.1h21.2a2.48,2.48,0,0,1,2.5,2.49v11h24.66a2.48,2.48,0,0,1,2.49,2.5V96.72A2.47,2.47,0,0,1,167.36,99.21Zm-57.09,15.65a2.5,2.5,0,0,1,5,0v56.58a2.5,2.5,0,0,1-5,0Zm33.67,0a2.5,2.5,0,0,1,5,0v56.58a2.5,2.5,0,0,1-5,0Zm-16.83,0a2.49,2.49,0,0,1,5,0v56.58a2.49,2.49,0,0,1-5,0Zm-5.62-34.33h16.22V72.09H121.49Z" transform="translate(-89.32 -67.1)"/></g></g></svg>