<svg width="40" height="40" viewBox="0 0 40 40" fill="none" xmlns="http://www.w3.org/2000/svg">
<path d="M12.4997 12.5V10C12.4997 8.01088 13.2898 6.10322 14.6963 4.6967C16.1028 3.29018 18.0104 2.5 19.9995 2.5C21.9886 2.5 23.8962 3.29018 25.3027 4.6967C26.7092 6.10322 27.4993 8.01088 27.4993 10V12.5C27.4993 12.8315 27.631 13.1495 27.8654 13.3839C28.0998 13.6183 28.4178 13.75 28.7493 13.75V16.25H31.2492V13.75C31.2488 13.3116 31.133 12.881 30.9137 12.5015C30.6943 12.1219 30.3789 11.8067 29.9993 11.5875V10C29.9993 7.34784 28.9457 4.8043 27.0704 2.92893C25.1951 1.05357 22.6516 0 19.9995 0C17.3474 0 14.8039 1.05357 12.9286 2.92893C11.0533 4.8043 9.99975 7.34784 9.99975 10V11.5875C9.62009 11.8067 9.30474 12.1219 9.08535 12.5015C8.86596 12.881 8.75023 13.3116 8.74978 13.75V16.25C8.74582 16.6926 8.85945 17.1284 9.07907 17.5127C9.29868 17.8971 9.6164 18.2162 9.99975 18.4375C10.1646 20.025 10.7038 21.5507 11.573 22.8893C12.4421 24.2279 13.6165 25.3411 14.9996 26.1375V27.875L5.87485 31.25C4.73738 31.5375 0 32.9625 0 36.25V38.75C0 39.0815 0.131693 39.3995 0.366107 39.6339C0.600522 39.8683 0.918457 40 1.24997 40H18.7495V37.5H2.49994V36.25C2.49994 35.275 4.89988 34.125 6.54984 33.75H6.68733L16.6871 30C16.9388 29.9065 17.1537 29.7345 17.3001 29.5094C17.4464 29.2843 17.5164 29.018 17.4996 28.75V25.3875C17.4989 25.1519 17.4317 24.9213 17.3056 24.7222C17.1795 24.5232 16.9998 24.3638 16.7871 24.2625C15.5066 23.6555 14.4242 22.6981 13.6654 21.5013C12.9067 20.3044 12.5025 18.9171 12.4997 17.5C12.4997 17.1685 12.368 16.8505 12.1336 16.6161C11.8992 16.3817 11.5812 16.25 11.2497 16.25V13.75C11.5812 13.75 11.8992 13.6183 12.1336 13.3839C12.368 13.1495 12.4997 12.8315 12.4997 12.5Z" fill="white"/>
<path d="M39.6362 27.8625L35.8863 24.1125L34.1238 25.875L35.7363 27.5H26.249V30H35.7363L34.1238 31.6125L35.8863 33.375L39.6362 29.625C39.869 29.3908 39.9997 29.074 39.9997 28.7438C39.9997 28.4135 39.869 28.0967 39.6362 27.8625Z" fill="white"/>
<path d="M28.7488 33.75C28.7488 34.0815 28.6171 34.3995 28.3827 34.6339C28.1483 34.8683 27.8304 35 27.4989 35H23.749V22.5H27.4989C27.8304 22.5 28.1483 22.6317 28.3827 22.8661C28.6171 23.1005 28.7488 23.4185 28.7488 23.75V25H31.2488V23.75C31.2488 22.7554 30.8537 21.8016 30.1505 21.0983C29.4472 20.3951 28.4934 20 27.4989 20H22.499C22.1675 20 21.8495 20.1317 21.6151 20.3661C21.3807 20.6005 21.249 20.9185 21.249 21.25V36.25C21.249 36.5815 21.3807 36.8995 21.6151 37.1339C21.8495 37.3683 22.1675 37.5 22.499 37.5H27.4989C28.4934 37.5 29.4472 37.1049 30.1505 36.4017C30.8537 35.6984 31.2488 34.7446 31.2488 33.75V32.5H28.7488V33.75Z" fill="white"/>
</svg>
