<?xml version="1.0" encoding="UTF-8"?>
<svg viewBox="0 0 640 480" xmlns="http://www.w3.org/2000/svg">
 <path d="m308.89 161.9s-12.5-52.25-25.5-74-39.75-31.25-57.75-29.75-46.5 17.25-53 41.75 7 74.5 7 74.5l-20.25 6.5s-22.75-129.25 65.25-130.5 105.25 114 105.25 114l-21-2.5z" fill="#fff" stroke="#130f06"/>
 <path d="m333.44 133.8-20.333 2.611c-3.286 0.422-5.608 3.429-5.187 6.715l1.019 7.935c0.422 3.287 3.429 5.609 6.716 5.187l20.333-2.611c3.286-0.42201 5.608-3.429 5.187-6.715l-1.019-7.935c-0.422-3.287-3.429-5.609-6.716-5.187zm4.743 12.762c0.32199 2.509-1.588 4.822-4.264 5.166l-16.562 2.127c-2.678 0.34399-5.11-1.412-5.433-3.92l-0.77802-6.059c-0.32098-2.508 1.589-4.822 4.266-5.166l16.562-2.126c2.677-0.34399 5.109 1.412 5.432 3.921l0.77701 6.057z" fill="#fff" stroke="#130f06"/>
 <path d="m175.5 145.8-20.333 2.611c-3.286 0.42201-5.608 3.429-5.187 6.715l1.019 7.935c0.422 3.287 3.429 5.609 6.716 5.187l20.333-2.611c3.286-0.422 5.608-3.429 5.187-6.715l-1.019-7.935c-0.422-3.287-3.429-5.609-6.716-5.187zm4.743 12.762c0.32201 2.509-1.588 4.822-4.264 5.166l-16.562 2.127c-2.678 0.34401-5.11-1.412-5.433-3.92l-0.77799-6.059c-0.32101-2.508 1.589-4.822 4.266-5.166l16.562-2.126c2.677-0.34401 5.109 1.412 5.432 3.921l0.77701 6.057z" fill="#fff" stroke="#130f06"/>
 <path d="m424.64 393.66s19-3 11.5-67-10.5-96.5-16-112-20.5-54-84.5-53.5-161 2.5-208 24-43.736 41.882-44.5 49c-8 74.5-1.301 132.8 5.5 160 7 28 11 29 28 29 25.402 0 91-5 160.5-11s147.5-18.5 147.5-18.5z" fill="#fff" stroke="#130f06"/>
 <path d="m434.14 354.16s3 18.5-4.5 25.5-19 9-26 9.5-273 26-273 26-22 1.5-27.5-6.5-7.5-6.5-9-39.5-3.5-116.5-1.5-132 6-34.5 27-48 47-18.5 122.5-26.5 114 0 124.5 5.5 40 18 46.5 51.5 21 134.5 21 134.5z" fill="#fff" stroke="#130f06"/>
 <path d="m337.14 164.66-1-14-21.5 1 0.5 14.5z" fill="#fff" stroke="#130f06"/>
 <path d="m177.64 157.16 2 15-20.5 5.5-3-17.5z" fill="#fff" stroke="#130f06"/>
 <path d="m305.14 90.405s-0.108-0.19099-0.32501-0.549c-3.102-5.104-28.442-44.038-78.675-41.701-53.75 2.5-62.75 47.5-62.75 47.5l-2.25-13s17-48.25 61.25-48.5 66.5 19.5 77.5 41.75 5.25 14.5 5.25 14.5z" fill="#fff" stroke="#130f06"/>
 <path d="m334.64 139.66-20.5 3.5s3 3.5 0-6-10-30-14.5-43-27-64-75-59c-54.591 5.687-59 37-56.5 61s9 58 9 58l-21.5 4s-18.5-112 59-124.5 113 80 120 106z" fill="#fff" stroke="#130f06"/>
</svg>
