<svg width="705" height="367" viewBox="0 0 705 367" fill="none" xmlns="http://www.w3.org/2000/svg">
<path d="M43.0491 156.48C48.9363 149.122 55.6337 142.524 63.0027 136.82C86.4452 118.86 114.274 108.389 141.586 97.9891C212.506 70.932 283.576 42.4747 358.305 30.7027C447.944 16.5883 533.182 31.9529 619.745 56.4073C629.437 59.1415 639.191 61.9648 648.117 66.819C669.188 78.2219 687.75 106.266 691.285 130.868C694.82 155.469 668.705 179.897 632.939 185.317L632.208 185.367C632.569 188.961 632.568 192.583 632.203 196.171C629.481 223.491 606.917 243.552 580.713 242.99C580.72 245.363 580.608 247.733 580.376 250.092C576.692 287.079 544.536 313.661 508.555 309.46C505.053 309.055 501.585 308.36 498.185 307.379C490.527 317.138 480.827 324.911 469.831 330.102C458.834 335.293 446.833 337.763 434.75 337.323C422.666 336.883 410.821 333.545 400.124 327.564C389.427 321.584 380.162 313.12 373.042 302.823C370.744 306.409 367.548 309.26 363.803 311.065C360.058 312.87 355.906 313.561 351.799 313.063C347.691 312.565 343.784 310.896 340.504 308.238C337.223 305.58 334.693 302.035 333.189 297.988C302.244 313.823 269.349 314.047 248.224 299.751C235.212 310.336 218.875 315.429 202.401 314.036C185.928 312.644 170.499 304.866 159.126 292.22C151.127 296.184 141.992 296.89 133.483 294.201C124.975 291.513 117.697 285.62 113.053 277.661C111.608 278.496 110.139 279.31 108.621 280.068C73.5834 297.889 35.3167 291.193 23.1331 265.117C6.29696 229.141 19.1009 186.213 43.0491 156.48Z" fill="url(#paint0_linear)"/>
<path d="M39.8725 149.911C45.7629 142.577 52.4575 135.998 59.819 130.31C83.2725 112.349 111.102 101.878 138.402 91.4793C209.312 64.423 280.455 35.9023 355.151 24.1326C444.756 10.0204 529.972 25.3865 616.557 49.8394C626.25 52.5736 636.015 55.3962 644.929 60.2511C666.016 71.723 684.574 99.6974 688.109 124.299C691.644 148.9 665.529 173.34 629.751 178.749L629.031 178.798C629.382 182.393 629.38 186.013 629.027 189.603C626.304 216.923 603.741 236.995 577.536 236.422C577.541 238.795 577.425 241.165 577.188 243.524C573.504 280.511 541.349 307.093 505.368 302.903C501.87 302.488 498.406 301.788 495.008 300.811C487.352 310.563 477.656 318.331 466.665 323.52C455.674 328.708 443.68 331.18 431.602 330.744C419.524 330.309 407.683 326.978 396.988 321.007C386.293 315.036 377.027 306.584 369.902 296.299C367.604 299.885 364.408 302.735 360.663 304.541C356.918 306.346 352.766 307.037 348.658 306.538C344.551 306.04 340.644 304.371 337.363 301.714C334.083 299.056 331.553 295.511 330.049 291.463C299.115 307.298 266.225 307.592 245.084 293.227C232.075 303.819 215.736 308.917 199.26 307.524C182.785 306.131 167.355 298.348 155.986 285.695C147.988 289.659 138.855 290.364 130.348 287.675C121.842 284.987 114.566 279.094 109.924 271.136C108.467 271.972 107.01 272.784 105.493 273.554C70.4543 291.364 32.1765 284.668 19.9929 258.593C3.13141 222.571 15.9132 179.646 39.8725 149.911Z" fill="url(#paint1_linear)"/>
<defs>
<linearGradient id="paint0_linear" x1="476.509" y1="363.125" x2="195.779" y2="26.1859" gradientUnits="userSpaceOnUse">
<stop stop-color="#FFE1E3"/>
<stop offset="1" stop-color="#FFD3D8"/>
</linearGradient>
<linearGradient id="paint1_linear" x1="473.311" y1="356.545" x2="192.57" y2="19.6084" gradientUnits="userSpaceOnUse">
<stop stop-color="#FFC8CB"/>
<stop offset="1" stop-color="#FF929E"/>
</linearGradient>
</defs>
</svg>
